<?xml version="1.0" encoding="UTF-8"?>
<svg id="Layer_1" data-name="Layer 1" xmlns="http://www.w3.org/2000/svg" viewBox="0 0 1440 932">
  <defs>
    <style>
      .cls-1 {
        fill: none;
        stroke: #fff;
        stroke-linejoin: round;
        stroke-width: 2.83px;
      }
    </style>
  </defs>
  <polygon class="cls-1" points="530 120 600 190 810 190 880 120 863.15 103.19 552.37 103.19 530 120"/>
  <polygon class="cls-1" points="545.73 451.51 590 405.94 590 204.6 520 137.48 503.19 153.64 502.61 409.68 545.73 451.51"/>
  <polygon class="cls-1" points="545.73 482.84 590 528.41 590 729.75 520 796.87 503.19 780.71 502.61 524.67 545.73 482.84"/>
  <polygon class="cls-1" points="564.71 466.63 610.28 422.36 811.62 422.36 853.23 466.86 810.73 510.23 606.54 509.76 564.71 466.63"/>
  <polygon class="cls-1" points="870.43 449.44 826.16 403.87 826.16 202.53 896.16 135.41 912.97 151.57 913.56 407.61 870.43 449.44"/>
  <polygon class="cls-1" points="868.36 481.81 824.09 527.38 824.09 728.72 894.09 795.83 910.9 779.67 911.48 523.63 868.36 481.81"/>
  <polygon class="cls-1" points="531.79 813.86 601.79 743.86 811.79 743.86 881.79 813.86 864.93 830.67 554.15 830.67 531.79 813.86"/>
</svg>